<mxfile host="app.diagrams.net" agent="Mozilla/5.0 (Windows NT 10.0; Win64; x64) AppleWebKit/537.36 (KHTML, like Gecko) Chrome/133.0.0.0 Safari/537.36" version="26.1.1">
  <diagram id="R2lEEEUBdFMjLlhIrx00" name="Page-1">
    <mxGraphModel dx="2958" dy="1534" grid="1" gridSize="10" guides="1" tooltips="1" connect="1" arrows="1" fold="1" page="1" pageScale="1" pageWidth="850" pageHeight="1100" math="0" shadow="0" extFonts="Permanent Marker^https://fonts.googleapis.com/css?family=Permanent+Marker">
      <root>
        <mxCell id="0" />
        <mxCell id="1" parent="0" />
        <mxCell id="tYoEQaHqkxEebnTTU7bw-63" value="Employment" style="shape=table;startSize=30;container=1;collapsible=1;childLayout=tableLayout;fixedRows=1;rowLines=0;fontStyle=1;align=center;resizeLast=1;" parent="1" vertex="1">
          <mxGeometry x="-1420" y="50" width="700" height="190" as="geometry" />
        </mxCell>
        <mxCell id="tYoEQaHqkxEebnTTU7bw-64" value="" style="shape=partialRectangle;collapsible=0;dropTarget=0;pointerEvents=0;fillColor=none;points=[[0,0.5],[1,0.5]];portConstraint=eastwest;top=0;left=0;right=0;bottom=1;" parent="tYoEQaHqkxEebnTTU7bw-63" vertex="1">
          <mxGeometry y="30" width="700" height="30" as="geometry" />
        </mxCell>
        <mxCell id="tYoEQaHqkxEebnTTU7bw-65" value="PK" style="shape=partialRectangle;overflow=hidden;connectable=0;fillColor=none;top=0;left=0;bottom=0;right=0;fontStyle=1;" parent="tYoEQaHqkxEebnTTU7bw-64" vertex="1">
          <mxGeometry width="30" height="30" as="geometry">
            <mxRectangle width="30" height="30" as="alternateBounds" />
          </mxGeometry>
        </mxCell>
        <mxCell id="tYoEQaHqkxEebnTTU7bw-66" value="employment_id SERIAL" style="shape=partialRectangle;overflow=hidden;connectable=0;fillColor=none;top=0;left=0;bottom=0;right=0;align=left;spacingLeft=6;fontStyle=1;" parent="tYoEQaHqkxEebnTTU7bw-64" vertex="1">
          <mxGeometry x="30" width="670" height="30" as="geometry">
            <mxRectangle width="670" height="30" as="alternateBounds" />
          </mxGeometry>
        </mxCell>
        <mxCell id="tYoEQaHqkxEebnTTU7bw-67" value="" style="shape=partialRectangle;collapsible=0;dropTarget=0;pointerEvents=0;fillColor=none;points=[[0,0.5],[1,0.5]];portConstraint=eastwest;top=0;left=0;right=0;bottom=0;" parent="tYoEQaHqkxEebnTTU7bw-63" vertex="1">
          <mxGeometry y="60" width="700" height="30" as="geometry" />
        </mxCell>
        <mxCell id="tYoEQaHqkxEebnTTU7bw-68" value="FK1" style="shape=partialRectangle;overflow=hidden;connectable=0;fillColor=none;top=0;left=0;bottom=0;right=0;" parent="tYoEQaHqkxEebnTTU7bw-67" vertex="1">
          <mxGeometry width="30" height="30" as="geometry">
            <mxRectangle width="30" height="30" as="alternateBounds" />
          </mxGeometry>
        </mxCell>
        <mxCell id="tYoEQaHqkxEebnTTU7bw-69" value="offer_id REFERENCES Offer(offer_id) CHECK (offer_id IN (SELECT offer_id FROM Offer WHERE offer_status=&#39;Accpeted&#39;))" style="shape=partialRectangle;overflow=hidden;connectable=0;fillColor=none;top=0;left=0;bottom=0;right=0;align=left;spacingLeft=6;" parent="tYoEQaHqkxEebnTTU7bw-67" vertex="1">
          <mxGeometry x="30" width="670" height="30" as="geometry">
            <mxRectangle width="670" height="30" as="alternateBounds" />
          </mxGeometry>
        </mxCell>
        <mxCell id="tYoEQaHqkxEebnTTU7bw-114" value="" style="group" parent="1" vertex="1" connectable="0">
          <mxGeometry x="-230" y="-10" width="610" height="570" as="geometry" />
        </mxCell>
        <mxCell id="tYoEQaHqkxEebnTTU7bw-119" value="" style="group" parent="tYoEQaHqkxEebnTTU7bw-114" vertex="1" connectable="0">
          <mxGeometry width="560" height="280" as="geometry" />
        </mxCell>
        <mxCell id="tYoEQaHqkxEebnTTU7bw-140" value="" style="group" parent="tYoEQaHqkxEebnTTU7bw-119" vertex="1" connectable="0">
          <mxGeometry width="560" height="280" as="geometry" />
        </mxCell>
        <mxCell id="tYoEQaHqkxEebnTTU7bw-100" value="Application" style="shape=table;startSize=30;container=1;collapsible=1;childLayout=tableLayout;fixedRows=1;rowLines=0;fontStyle=1;align=center;resizeLast=1;" parent="tYoEQaHqkxEebnTTU7bw-140" vertex="1">
          <mxGeometry width="560" height="270" as="geometry" />
        </mxCell>
        <mxCell id="tYoEQaHqkxEebnTTU7bw-101" value="" style="shape=partialRectangle;collapsible=0;dropTarget=0;pointerEvents=0;fillColor=none;points=[[0,0.5],[1,0.5]];portConstraint=eastwest;top=0;left=0;right=0;bottom=1;" parent="tYoEQaHqkxEebnTTU7bw-100" vertex="1">
          <mxGeometry y="30" width="560" height="30" as="geometry" />
        </mxCell>
        <mxCell id="tYoEQaHqkxEebnTTU7bw-102" value="PK" style="shape=partialRectangle;overflow=hidden;connectable=0;fillColor=none;top=0;left=0;bottom=0;right=0;fontStyle=1;" parent="tYoEQaHqkxEebnTTU7bw-101" vertex="1">
          <mxGeometry width="30" height="30" as="geometry">
            <mxRectangle width="30" height="30" as="alternateBounds" />
          </mxGeometry>
        </mxCell>
        <mxCell id="tYoEQaHqkxEebnTTU7bw-103" value="application_id SERIAL" style="shape=partialRectangle;overflow=hidden;connectable=0;fillColor=none;top=0;left=0;bottom=0;right=0;align=left;spacingLeft=6;fontStyle=1;" parent="tYoEQaHqkxEebnTTU7bw-101" vertex="1">
          <mxGeometry x="30" width="530" height="30" as="geometry">
            <mxRectangle width="530" height="30" as="alternateBounds" />
          </mxGeometry>
        </mxCell>
        <mxCell id="tYoEQaHqkxEebnTTU7bw-107" value="" style="shape=partialRectangle;collapsible=0;dropTarget=0;pointerEvents=0;fillColor=none;points=[[0,0.5],[1,0.5]];portConstraint=eastwest;top=0;left=0;right=0;bottom=0;" parent="tYoEQaHqkxEebnTTU7bw-100" vertex="1">
          <mxGeometry y="60" width="560" height="30" as="geometry" />
        </mxCell>
        <mxCell id="tYoEQaHqkxEebnTTU7bw-108" value="" style="shape=partialRectangle;overflow=hidden;connectable=0;fillColor=none;top=0;left=0;bottom=0;right=0;" parent="tYoEQaHqkxEebnTTU7bw-107" vertex="1">
          <mxGeometry width="30" height="30" as="geometry">
            <mxRectangle width="30" height="30" as="alternateBounds" />
          </mxGeometry>
        </mxCell>
        <mxCell id="tYoEQaHqkxEebnTTU7bw-109" value="candidate_id INT NOT NULL" style="shape=partialRectangle;overflow=hidden;connectable=0;fillColor=none;top=0;left=0;bottom=0;right=0;align=left;spacingLeft=6;" parent="tYoEQaHqkxEebnTTU7bw-107" vertex="1">
          <mxGeometry x="30" width="530" height="30" as="geometry">
            <mxRectangle width="530" height="30" as="alternateBounds" />
          </mxGeometry>
        </mxCell>
        <mxCell id="tYoEQaHqkxEebnTTU7bw-110" value="FK1" style="shape=partialRectangle;overflow=hidden;connectable=0;fillColor=none;top=0;left=0;bottom=0;right=0;" parent="tYoEQaHqkxEebnTTU7bw-140" vertex="1">
          <mxGeometry y="170" width="30" height="30" as="geometry">
            <mxRectangle width="30" height="30" as="alternateBounds" />
          </mxGeometry>
        </mxCell>
        <mxCell id="tYoEQaHqkxEebnTTU7bw-111" value="job_id INT NOT NULL" style="shape=partialRectangle;overflow=hidden;connectable=0;fillColor=none;top=0;left=0;bottom=0;right=0;align=left;spacingLeft=6;" parent="tYoEQaHqkxEebnTTU7bw-140" vertex="1">
          <mxGeometry x="30" y="90" width="215" height="30" as="geometry">
            <mxRectangle width="215" height="30" as="alternateBounds" />
          </mxGeometry>
        </mxCell>
        <mxCell id="tYoEQaHqkxEebnTTU7bw-113" value="status VARCHAR(20) CHECK (status IN (&#39;Applied&#39;, &#39;Interview Scheduled&#39;, &#39;Rejected&#39;, &#39;Offered&#39;))" style="shape=partialRectangle;overflow=hidden;connectable=0;fillColor=none;top=0;left=0;bottom=0;right=0;align=left;spacingLeft=6;" parent="tYoEQaHqkxEebnTTU7bw-140" vertex="1">
          <mxGeometry x="30" y="120" width="518" height="20" as="geometry">
            <mxRectangle width="270" height="30" as="alternateBounds" />
          </mxGeometry>
        </mxCell>
        <mxCell id="tYoEQaHqkxEebnTTU7bw-115" value="application_date TIMESTAMP DEFAULT CURRENT_TIMESTAMP" style="shape=partialRectangle;overflow=hidden;connectable=0;fillColor=none;top=0;left=0;bottom=0;right=0;align=left;spacingLeft=6;" parent="tYoEQaHqkxEebnTTU7bw-140" vertex="1">
          <mxGeometry x="30" y="140" width="380" height="30" as="geometry">
            <mxRectangle width="215" height="30" as="alternateBounds" />
          </mxGeometry>
        </mxCell>
        <mxCell id="tYoEQaHqkxEebnTTU7bw-116" value="candidate_id REFERENCES Candidate(candidate_id)" style="shape=partialRectangle;overflow=hidden;connectable=0;fillColor=none;top=0;left=0;bottom=0;right=0;align=left;spacingLeft=6;" parent="tYoEQaHqkxEebnTTU7bw-140" vertex="1">
          <mxGeometry x="37.5" y="170" width="312.5" height="30" as="geometry">
            <mxRectangle width="215" height="30" as="alternateBounds" />
          </mxGeometry>
        </mxCell>
        <mxCell id="tYoEQaHqkxEebnTTU7bw-117" value="job_id REFERENCES Job(job_id)" style="shape=partialRectangle;overflow=hidden;connectable=0;fillColor=none;top=0;left=0;bottom=0;right=0;align=left;spacingLeft=6;" parent="tYoEQaHqkxEebnTTU7bw-140" vertex="1">
          <mxGeometry x="37.5" y="200" width="312.5" height="30" as="geometry">
            <mxRectangle width="215" height="30" as="alternateBounds" />
          </mxGeometry>
        </mxCell>
        <mxCell id="tYoEQaHqkxEebnTTU7bw-118" value="FK2" style="shape=partialRectangle;overflow=hidden;connectable=0;fillColor=none;top=0;left=0;bottom=0;right=0;" parent="tYoEQaHqkxEebnTTU7bw-140" vertex="1">
          <mxGeometry y="200" width="30" height="30" as="geometry">
            <mxRectangle width="30" height="30" as="alternateBounds" />
          </mxGeometry>
        </mxCell>
        <mxCell id="FgKYQ0UO0EhNAM642KUZ-18" value="recruiter_id REFERENCES Recruiter(recruiter_id)" style="shape=partialRectangle;overflow=hidden;connectable=0;fillColor=none;top=0;left=0;bottom=0;right=0;align=left;spacingLeft=6;" vertex="1" parent="tYoEQaHqkxEebnTTU7bw-140">
          <mxGeometry x="37.5" y="230" width="312.5" height="30" as="geometry">
            <mxRectangle width="215" height="30" as="alternateBounds" />
          </mxGeometry>
        </mxCell>
        <mxCell id="FgKYQ0UO0EhNAM642KUZ-19" value="FK3" style="shape=partialRectangle;overflow=hidden;connectable=0;fillColor=none;top=0;left=0;bottom=0;right=0;" vertex="1" parent="tYoEQaHqkxEebnTTU7bw-140">
          <mxGeometry y="230" width="30" height="30" as="geometry">
            <mxRectangle width="30" height="30" as="alternateBounds" />
          </mxGeometry>
        </mxCell>
        <mxCell id="tYoEQaHqkxEebnTTU7bw-157" value="" style="group" parent="tYoEQaHqkxEebnTTU7bw-114" vertex="1" connectable="0">
          <mxGeometry x="190" y="350" width="330" height="220" as="geometry" />
        </mxCell>
        <mxCell id="tYoEQaHqkxEebnTTU7bw-2" value="Recruiter" style="shape=table;startSize=30;container=1;collapsible=1;childLayout=tableLayout;fixedRows=1;rowLines=0;fontStyle=0;align=center;resizeLast=1;" parent="tYoEQaHqkxEebnTTU7bw-157" vertex="1">
          <mxGeometry width="330" height="220" as="geometry" />
        </mxCell>
        <mxCell id="tYoEQaHqkxEebnTTU7bw-3" value="" style="shape=partialRectangle;collapsible=0;dropTarget=0;pointerEvents=0;fillColor=none;points=[[0,0.5],[1,0.5]];portConstraint=eastwest;top=0;left=0;right=0;bottom=1;" parent="tYoEQaHqkxEebnTTU7bw-2" vertex="1">
          <mxGeometry y="30" width="330" height="30" as="geometry" />
        </mxCell>
        <mxCell id="tYoEQaHqkxEebnTTU7bw-4" value="PK" style="shape=partialRectangle;overflow=hidden;connectable=0;fillColor=none;top=0;left=0;bottom=0;right=0;fontStyle=1;" parent="tYoEQaHqkxEebnTTU7bw-3" vertex="1">
          <mxGeometry width="30" height="30" as="geometry">
            <mxRectangle width="30" height="30" as="alternateBounds" />
          </mxGeometry>
        </mxCell>
        <mxCell id="tYoEQaHqkxEebnTTU7bw-5" value="recruiter_id SERIAL" style="shape=partialRectangle;overflow=hidden;connectable=0;fillColor=none;top=0;left=0;bottom=0;right=0;align=left;spacingLeft=6;fontStyle=1;" parent="tYoEQaHqkxEebnTTU7bw-3" vertex="1">
          <mxGeometry x="30" width="300" height="30" as="geometry">
            <mxRectangle width="300" height="30" as="alternateBounds" />
          </mxGeometry>
        </mxCell>
        <mxCell id="tYoEQaHqkxEebnTTU7bw-6" value="" style="shape=partialRectangle;collapsible=0;dropTarget=0;pointerEvents=0;fillColor=none;points=[[0,0.5],[1,0.5]];portConstraint=eastwest;top=0;left=0;right=0;bottom=0;" parent="tYoEQaHqkxEebnTTU7bw-2" vertex="1">
          <mxGeometry y="60" width="330" height="30" as="geometry" />
        </mxCell>
        <mxCell id="tYoEQaHqkxEebnTTU7bw-7" value="" style="shape=partialRectangle;overflow=hidden;connectable=0;fillColor=none;top=0;left=0;bottom=0;right=0;" parent="tYoEQaHqkxEebnTTU7bw-6" vertex="1">
          <mxGeometry width="30" height="30" as="geometry">
            <mxRectangle width="30" height="30" as="alternateBounds" />
          </mxGeometry>
        </mxCell>
        <mxCell id="tYoEQaHqkxEebnTTU7bw-8" value="first_name VARCHAR(50) NOT NULL" style="shape=partialRectangle;overflow=hidden;connectable=0;fillColor=none;top=0;left=0;bottom=0;right=0;align=left;spacingLeft=6;" parent="tYoEQaHqkxEebnTTU7bw-6" vertex="1">
          <mxGeometry x="30" width="300" height="30" as="geometry">
            <mxRectangle width="300" height="30" as="alternateBounds" />
          </mxGeometry>
        </mxCell>
        <mxCell id="tYoEQaHqkxEebnTTU7bw-9" value="" style="shape=partialRectangle;collapsible=0;dropTarget=0;pointerEvents=0;fillColor=none;points=[[0,0.5],[1,0.5]];portConstraint=eastwest;top=0;left=0;right=0;bottom=0;" parent="tYoEQaHqkxEebnTTU7bw-2" vertex="1">
          <mxGeometry y="90" width="330" height="30" as="geometry" />
        </mxCell>
        <mxCell id="tYoEQaHqkxEebnTTU7bw-10" value="" style="shape=partialRectangle;overflow=hidden;connectable=0;fillColor=none;top=0;left=0;bottom=0;right=0;" parent="tYoEQaHqkxEebnTTU7bw-9" vertex="1">
          <mxGeometry width="30" height="30" as="geometry">
            <mxRectangle width="30" height="30" as="alternateBounds" />
          </mxGeometry>
        </mxCell>
        <mxCell id="tYoEQaHqkxEebnTTU7bw-11" value="last_name VARCHAR(50) NOT NULL" style="shape=partialRectangle;overflow=hidden;connectable=0;fillColor=none;top=0;left=0;bottom=0;right=0;align=left;spacingLeft=6;" parent="tYoEQaHqkxEebnTTU7bw-9" vertex="1">
          <mxGeometry x="30" width="300" height="30" as="geometry">
            <mxRectangle width="300" height="30" as="alternateBounds" />
          </mxGeometry>
        </mxCell>
        <mxCell id="tYoEQaHqkxEebnTTU7bw-156" value="email VARCHAR(100) UNIQUIE NOT NULL" style="shape=partialRectangle;overflow=hidden;connectable=0;fillColor=none;top=0;left=0;bottom=0;right=0;align=left;spacingLeft=6;" parent="tYoEQaHqkxEebnTTU7bw-157" vertex="1">
          <mxGeometry x="35.35714285714286" y="125.71428571428572" width="294.64285714285717" height="44" as="geometry">
            <mxRectangle width="220" height="30" as="alternateBounds" />
          </mxGeometry>
        </mxCell>
        <mxCell id="FgKYQ0UO0EhNAM642KUZ-22" value="employer_id REFERENCES Employer(employer_id)" style="shape=partialRectangle;overflow=hidden;connectable=0;fillColor=none;top=0;left=0;bottom=0;right=0;align=left;spacingLeft=6;" vertex="1" parent="tYoEQaHqkxEebnTTU7bw-157">
          <mxGeometry x="35.35714285714286" y="169.71428571428572" width="294.64285714285717" height="44" as="geometry">
            <mxRectangle width="220" height="30" as="alternateBounds" />
          </mxGeometry>
        </mxCell>
        <mxCell id="FgKYQ0UO0EhNAM642KUZ-23" value="FK1" style="shape=partialRectangle;overflow=hidden;connectable=0;fillColor=none;top=0;left=0;bottom=0;right=0;direction=south;" vertex="1" parent="tYoEQaHqkxEebnTTU7bw-157">
          <mxGeometry x="5.360000000000014" y="180" width="30" height="30" as="geometry">
            <mxRectangle width="30" height="30" as="alternateBounds" />
          </mxGeometry>
        </mxCell>
        <mxCell id="FgKYQ0UO0EhNAM642KUZ-20" value="" style="edgeStyle=entityRelationEdgeStyle;fontSize=12;html=1;endArrow=ERmany;rounded=0;" edge="1" parent="tYoEQaHqkxEebnTTU7bw-114">
          <mxGeometry width="100" height="100" relative="1" as="geometry">
            <mxPoint x="520" y="410" as="sourcePoint" />
            <mxPoint x="-10" y="250" as="targetPoint" />
          </mxGeometry>
        </mxCell>
        <mxCell id="tYoEQaHqkxEebnTTU7bw-136" value="" style="group" parent="1" vertex="1" connectable="0">
          <mxGeometry x="890" y="-150" width="400" height="120" as="geometry" />
        </mxCell>
        <mxCell id="tYoEQaHqkxEebnTTU7bw-43" value="Job_Skill" style="shape=table;startSize=30;container=1;collapsible=1;childLayout=tableLayout;fixedRows=1;rowLines=0;fontStyle=1;align=center;resizeLast=1;" parent="tYoEQaHqkxEebnTTU7bw-136" vertex="1">
          <mxGeometry width="400" height="120" as="geometry" />
        </mxCell>
        <mxCell id="tYoEQaHqkxEebnTTU7bw-44" value="" style="shape=partialRectangle;collapsible=0;dropTarget=0;pointerEvents=0;fillColor=none;points=[[0,0.5],[1,0.5]];portConstraint=eastwest;top=0;left=0;right=0;bottom=1;" parent="tYoEQaHqkxEebnTTU7bw-43" vertex="1">
          <mxGeometry y="30" width="400" height="30" as="geometry" />
        </mxCell>
        <mxCell id="tYoEQaHqkxEebnTTU7bw-45" value="PK" style="shape=partialRectangle;overflow=hidden;connectable=0;fillColor=none;top=0;left=0;bottom=0;right=0;fontStyle=1;" parent="tYoEQaHqkxEebnTTU7bw-44" vertex="1">
          <mxGeometry width="30" height="30" as="geometry">
            <mxRectangle width="30" height="30" as="alternateBounds" />
          </mxGeometry>
        </mxCell>
        <mxCell id="tYoEQaHqkxEebnTTU7bw-46" value="job_id, skill_id (job_id INT NOT NULL, skill_id INT NOT NULL)" style="shape=partialRectangle;overflow=hidden;connectable=0;fillColor=none;top=0;left=0;bottom=0;right=0;align=left;spacingLeft=6;fontStyle=5;" parent="tYoEQaHqkxEebnTTU7bw-44" vertex="1">
          <mxGeometry x="30" width="370" height="30" as="geometry">
            <mxRectangle width="370" height="30" as="alternateBounds" />
          </mxGeometry>
        </mxCell>
        <mxCell id="tYoEQaHqkxEebnTTU7bw-47" value="" style="shape=partialRectangle;collapsible=0;dropTarget=0;pointerEvents=0;fillColor=none;points=[[0,0.5],[1,0.5]];portConstraint=eastwest;top=0;left=0;right=0;bottom=0;" parent="tYoEQaHqkxEebnTTU7bw-43" vertex="1">
          <mxGeometry y="60" width="400" height="30" as="geometry" />
        </mxCell>
        <mxCell id="tYoEQaHqkxEebnTTU7bw-48" value="" style="shape=partialRectangle;overflow=hidden;connectable=0;fillColor=none;top=0;left=0;bottom=0;right=0;" parent="tYoEQaHqkxEebnTTU7bw-47" vertex="1">
          <mxGeometry width="30" height="30" as="geometry">
            <mxRectangle width="30" height="30" as="alternateBounds" />
          </mxGeometry>
        </mxCell>
        <mxCell id="tYoEQaHqkxEebnTTU7bw-49" value="job_id REFERENCES Job(job_id)" style="shape=partialRectangle;overflow=hidden;connectable=0;fillColor=none;top=0;left=0;bottom=0;right=0;align=left;spacingLeft=6;" parent="tYoEQaHqkxEebnTTU7bw-47" vertex="1">
          <mxGeometry x="30" width="370" height="30" as="geometry">
            <mxRectangle width="370" height="30" as="alternateBounds" />
          </mxGeometry>
        </mxCell>
        <mxCell id="tYoEQaHqkxEebnTTU7bw-50" value="" style="shape=partialRectangle;collapsible=0;dropTarget=0;pointerEvents=0;fillColor=none;points=[[0,0.5],[1,0.5]];portConstraint=eastwest;top=0;left=0;right=0;bottom=0;" parent="tYoEQaHqkxEebnTTU7bw-43" vertex="1">
          <mxGeometry y="90" width="400" height="30" as="geometry" />
        </mxCell>
        <mxCell id="tYoEQaHqkxEebnTTU7bw-51" value="" style="shape=partialRectangle;overflow=hidden;connectable=0;fillColor=none;top=0;left=0;bottom=0;right=0;" parent="tYoEQaHqkxEebnTTU7bw-50" vertex="1">
          <mxGeometry width="30" height="30" as="geometry">
            <mxRectangle width="30" height="30" as="alternateBounds" />
          </mxGeometry>
        </mxCell>
        <mxCell id="tYoEQaHqkxEebnTTU7bw-52" value="skill_id REFERENCES Skill(skill_id)" style="shape=partialRectangle;overflow=hidden;connectable=0;fillColor=none;top=0;left=0;bottom=0;right=0;align=left;spacingLeft=6;" parent="tYoEQaHqkxEebnTTU7bw-50" vertex="1">
          <mxGeometry x="30" width="370" height="30" as="geometry">
            <mxRectangle width="370" height="30" as="alternateBounds" />
          </mxGeometry>
        </mxCell>
        <mxCell id="tYoEQaHqkxEebnTTU7bw-134" value="FK1" style="shape=partialRectangle;overflow=hidden;connectable=0;fillColor=none;top=0;left=0;bottom=0;right=0;" parent="tYoEQaHqkxEebnTTU7bw-136" vertex="1">
          <mxGeometry y="60" width="30" height="30" as="geometry">
            <mxRectangle width="30" height="30" as="alternateBounds" />
          </mxGeometry>
        </mxCell>
        <mxCell id="tYoEQaHqkxEebnTTU7bw-135" value="FK2" style="shape=partialRectangle;overflow=hidden;connectable=0;fillColor=none;top=0;left=0;bottom=0;right=0;" parent="tYoEQaHqkxEebnTTU7bw-136" vertex="1">
          <mxGeometry y="90" width="30" height="30" as="geometry">
            <mxRectangle width="30" height="30" as="alternateBounds" />
          </mxGeometry>
        </mxCell>
        <mxCell id="tYoEQaHqkxEebnTTU7bw-138" value="" style="group" parent="1" vertex="1" connectable="0">
          <mxGeometry x="440" y="-10" width="340" height="210" as="geometry" />
        </mxCell>
        <mxCell id="C-vyLk0tnHw3VtMMgP7b-2" value="Job" style="shape=table;startSize=30;container=1;collapsible=1;childLayout=tableLayout;fixedRows=1;rowLines=0;fontStyle=1;align=center;resizeLast=1;" parent="tYoEQaHqkxEebnTTU7bw-138" vertex="1">
          <mxGeometry width="340" height="210" as="geometry" />
        </mxCell>
        <mxCell id="C-vyLk0tnHw3VtMMgP7b-3" value="" style="shape=partialRectangle;collapsible=0;dropTarget=0;pointerEvents=0;fillColor=none;points=[[0,0.5],[1,0.5]];portConstraint=eastwest;top=0;left=0;right=0;bottom=1;" parent="C-vyLk0tnHw3VtMMgP7b-2" vertex="1">
          <mxGeometry y="30" width="340" height="30" as="geometry" />
        </mxCell>
        <mxCell id="C-vyLk0tnHw3VtMMgP7b-4" value="PK" style="shape=partialRectangle;overflow=hidden;connectable=0;fillColor=none;top=0;left=0;bottom=0;right=0;fontStyle=1;" parent="C-vyLk0tnHw3VtMMgP7b-3" vertex="1">
          <mxGeometry width="30" height="30" as="geometry">
            <mxRectangle width="30" height="30" as="alternateBounds" />
          </mxGeometry>
        </mxCell>
        <mxCell id="C-vyLk0tnHw3VtMMgP7b-5" value="job_id SERIAL" style="shape=partialRectangle;overflow=hidden;connectable=0;fillColor=none;top=0;left=0;bottom=0;right=0;align=left;spacingLeft=6;fontStyle=1;" parent="C-vyLk0tnHw3VtMMgP7b-3" vertex="1">
          <mxGeometry x="30" width="310" height="30" as="geometry">
            <mxRectangle width="310" height="30" as="alternateBounds" />
          </mxGeometry>
        </mxCell>
        <mxCell id="C-vyLk0tnHw3VtMMgP7b-6" value="" style="shape=partialRectangle;collapsible=0;dropTarget=0;pointerEvents=0;fillColor=none;points=[[0,0.5],[1,0.5]];portConstraint=eastwest;top=0;left=0;right=0;bottom=0;" parent="C-vyLk0tnHw3VtMMgP7b-2" vertex="1">
          <mxGeometry y="60" width="340" height="30" as="geometry" />
        </mxCell>
        <mxCell id="C-vyLk0tnHw3VtMMgP7b-7" value="" style="shape=partialRectangle;overflow=hidden;connectable=0;fillColor=none;top=0;left=0;bottom=0;right=0;" parent="C-vyLk0tnHw3VtMMgP7b-6" vertex="1">
          <mxGeometry width="30" height="30" as="geometry">
            <mxRectangle width="30" height="30" as="alternateBounds" />
          </mxGeometry>
        </mxCell>
        <mxCell id="C-vyLk0tnHw3VtMMgP7b-8" value="title VARCHAR(100) NOT NULL" style="shape=partialRectangle;overflow=hidden;connectable=0;fillColor=none;top=0;left=0;bottom=0;right=0;align=left;spacingLeft=6;" parent="C-vyLk0tnHw3VtMMgP7b-6" vertex="1">
          <mxGeometry x="30" width="310" height="30" as="geometry">
            <mxRectangle width="310" height="30" as="alternateBounds" />
          </mxGeometry>
        </mxCell>
        <mxCell id="C-vyLk0tnHw3VtMMgP7b-9" value="" style="shape=partialRectangle;collapsible=0;dropTarget=0;pointerEvents=0;fillColor=none;points=[[0,0.5],[1,0.5]];portConstraint=eastwest;top=0;left=0;right=0;bottom=0;" parent="C-vyLk0tnHw3VtMMgP7b-2" vertex="1">
          <mxGeometry y="90" width="340" height="30" as="geometry" />
        </mxCell>
        <mxCell id="C-vyLk0tnHw3VtMMgP7b-10" value="" style="shape=partialRectangle;overflow=hidden;connectable=0;fillColor=none;top=0;left=0;bottom=0;right=0;" parent="C-vyLk0tnHw3VtMMgP7b-9" vertex="1">
          <mxGeometry width="30" height="30" as="geometry">
            <mxRectangle width="30" height="30" as="alternateBounds" />
          </mxGeometry>
        </mxCell>
        <mxCell id="C-vyLk0tnHw3VtMMgP7b-11" value="description TEXT" style="shape=partialRectangle;overflow=hidden;connectable=0;fillColor=none;top=0;left=0;bottom=0;right=0;align=left;spacingLeft=6;" parent="C-vyLk0tnHw3VtMMgP7b-9" vertex="1">
          <mxGeometry x="30" width="310" height="30" as="geometry">
            <mxRectangle width="310" height="30" as="alternateBounds" />
          </mxGeometry>
        </mxCell>
        <mxCell id="tYoEQaHqkxEebnTTU7bw-93" value="employer_id INT NOT NULL" style="shape=partialRectangle;overflow=hidden;connectable=0;fillColor=none;top=0;left=0;bottom=0;right=0;align=left;spacingLeft=6;" parent="tYoEQaHqkxEebnTTU7bw-138" vertex="1">
          <mxGeometry x="30" y="120" width="220" height="30" as="geometry">
            <mxRectangle width="220" height="30" as="alternateBounds" />
          </mxGeometry>
        </mxCell>
        <mxCell id="tYoEQaHqkxEebnTTU7bw-94" value="salary DECIMAL (10,2)" style="shape=partialRectangle;overflow=hidden;connectable=0;fillColor=none;top=0;left=0;bottom=0;right=0;align=left;spacingLeft=6;" parent="tYoEQaHqkxEebnTTU7bw-138" vertex="1">
          <mxGeometry x="30" y="150" width="220" height="30" as="geometry">
            <mxRectangle width="220" height="30" as="alternateBounds" />
          </mxGeometry>
        </mxCell>
        <mxCell id="tYoEQaHqkxEebnTTU7bw-96" value="FK1" style="shape=partialRectangle;overflow=hidden;connectable=0;fillColor=none;top=0;left=0;bottom=0;right=0;direction=south;" parent="tYoEQaHqkxEebnTTU7bw-138" vertex="1">
          <mxGeometry y="180" width="30" height="30" as="geometry">
            <mxRectangle width="30" height="30" as="alternateBounds" />
          </mxGeometry>
        </mxCell>
        <mxCell id="tYoEQaHqkxEebnTTU7bw-97" value="employer_id REFERENCES Employer(employer_id)" style="shape=partialRectangle;overflow=hidden;connectable=0;fillColor=none;top=0;left=0;bottom=0;right=0;align=left;spacingLeft=6;" parent="tYoEQaHqkxEebnTTU7bw-138" vertex="1">
          <mxGeometry x="30" y="180" width="299" height="30" as="geometry">
            <mxRectangle width="220" height="30" as="alternateBounds" />
          </mxGeometry>
        </mxCell>
        <mxCell id="tYoEQaHqkxEebnTTU7bw-139" value="" style="group" parent="1" vertex="1" connectable="0">
          <mxGeometry x="440" y="250" width="300" height="150" as="geometry" />
        </mxCell>
        <mxCell id="C-vyLk0tnHw3VtMMgP7b-13" value="Employer" style="shape=table;startSize=30;container=1;collapsible=1;childLayout=tableLayout;fixedRows=1;rowLines=0;fontStyle=1;align=center;resizeLast=1;" parent="tYoEQaHqkxEebnTTU7bw-139" vertex="1">
          <mxGeometry width="300" height="150" as="geometry" />
        </mxCell>
        <mxCell id="C-vyLk0tnHw3VtMMgP7b-14" value="" style="shape=partialRectangle;collapsible=0;dropTarget=0;pointerEvents=0;fillColor=none;points=[[0,0.5],[1,0.5]];portConstraint=eastwest;top=0;left=0;right=0;bottom=1;" parent="C-vyLk0tnHw3VtMMgP7b-13" vertex="1">
          <mxGeometry y="30" width="300" height="30" as="geometry" />
        </mxCell>
        <mxCell id="C-vyLk0tnHw3VtMMgP7b-15" value="PK" style="shape=partialRectangle;overflow=hidden;connectable=0;fillColor=none;top=0;left=0;bottom=0;right=0;fontStyle=1;" parent="C-vyLk0tnHw3VtMMgP7b-14" vertex="1">
          <mxGeometry width="30" height="30" as="geometry">
            <mxRectangle width="30" height="30" as="alternateBounds" />
          </mxGeometry>
        </mxCell>
        <mxCell id="C-vyLk0tnHw3VtMMgP7b-16" value="employer_id SERIAL" style="shape=partialRectangle;overflow=hidden;connectable=0;fillColor=none;top=0;left=0;bottom=0;right=0;align=left;spacingLeft=6;fontStyle=1;" parent="C-vyLk0tnHw3VtMMgP7b-14" vertex="1">
          <mxGeometry x="30" width="270" height="30" as="geometry">
            <mxRectangle width="270" height="30" as="alternateBounds" />
          </mxGeometry>
        </mxCell>
        <mxCell id="C-vyLk0tnHw3VtMMgP7b-17" value="" style="shape=partialRectangle;collapsible=0;dropTarget=0;pointerEvents=0;fillColor=none;points=[[0,0.5],[1,0.5]];portConstraint=eastwest;top=0;left=0;right=0;bottom=0;" parent="C-vyLk0tnHw3VtMMgP7b-13" vertex="1">
          <mxGeometry y="60" width="300" height="30" as="geometry" />
        </mxCell>
        <mxCell id="C-vyLk0tnHw3VtMMgP7b-18" value="" style="shape=partialRectangle;overflow=hidden;connectable=0;fillColor=none;top=0;left=0;bottom=0;right=0;sketch=1;curveFitting=1;jiggle=2;" parent="C-vyLk0tnHw3VtMMgP7b-17" vertex="1">
          <mxGeometry width="30" height="30" as="geometry">
            <mxRectangle width="30" height="30" as="alternateBounds" />
          </mxGeometry>
        </mxCell>
        <mxCell id="C-vyLk0tnHw3VtMMgP7b-19" value="company_name VARCHAR(100) NOT NULL" style="shape=partialRectangle;overflow=hidden;connectable=0;fillColor=none;top=0;left=0;bottom=0;right=0;align=left;spacingLeft=6;" parent="C-vyLk0tnHw3VtMMgP7b-17" vertex="1">
          <mxGeometry x="30" width="270" height="30" as="geometry">
            <mxRectangle width="270" height="30" as="alternateBounds" />
          </mxGeometry>
        </mxCell>
        <mxCell id="C-vyLk0tnHw3VtMMgP7b-20" value="" style="shape=partialRectangle;collapsible=0;dropTarget=0;pointerEvents=0;fillColor=none;points=[[0,0.5],[1,0.5]];portConstraint=eastwest;top=0;left=0;right=0;bottom=0;" parent="C-vyLk0tnHw3VtMMgP7b-13" vertex="1">
          <mxGeometry y="90" width="300" height="30" as="geometry" />
        </mxCell>
        <mxCell id="C-vyLk0tnHw3VtMMgP7b-21" value="" style="shape=partialRectangle;overflow=hidden;connectable=0;fillColor=none;top=0;left=0;bottom=0;right=0;" parent="C-vyLk0tnHw3VtMMgP7b-20" vertex="1">
          <mxGeometry width="30" height="30" as="geometry">
            <mxRectangle width="30" height="30" as="alternateBounds" />
          </mxGeometry>
        </mxCell>
        <mxCell id="C-vyLk0tnHw3VtMMgP7b-22" value="industry VARCHAR(50)" style="shape=partialRectangle;overflow=hidden;connectable=0;fillColor=none;top=0;left=0;bottom=0;right=0;align=left;spacingLeft=6;" parent="C-vyLk0tnHw3VtMMgP7b-20" vertex="1">
          <mxGeometry x="30" width="270" height="30" as="geometry">
            <mxRectangle width="270" height="30" as="alternateBounds" />
          </mxGeometry>
        </mxCell>
        <mxCell id="tYoEQaHqkxEebnTTU7bw-99" value="location VARCHAR(100)" style="shape=partialRectangle;overflow=hidden;connectable=0;fillColor=none;top=0;left=0;bottom=0;right=0;align=left;spacingLeft=6;" parent="tYoEQaHqkxEebnTTU7bw-139" vertex="1">
          <mxGeometry x="30" y="120" width="270" height="30" as="geometry">
            <mxRectangle width="270" height="30" as="alternateBounds" />
          </mxGeometry>
        </mxCell>
        <mxCell id="tYoEQaHqkxEebnTTU7bw-141" value="Skill" style="shape=table;startSize=30;container=1;collapsible=1;childLayout=tableLayout;fixedRows=1;rowLines=0;fontStyle=1;align=center;resizeLast=1;" parent="1" vertex="1">
          <mxGeometry x="520" y="-320" width="300" height="140" as="geometry" />
        </mxCell>
        <mxCell id="tYoEQaHqkxEebnTTU7bw-142" value="" style="shape=partialRectangle;collapsible=0;dropTarget=0;pointerEvents=0;fillColor=none;points=[[0,0.5],[1,0.5]];portConstraint=eastwest;top=0;left=0;right=0;bottom=1;" parent="tYoEQaHqkxEebnTTU7bw-141" vertex="1">
          <mxGeometry y="30" width="300" height="30" as="geometry" />
        </mxCell>
        <mxCell id="tYoEQaHqkxEebnTTU7bw-143" value="PK" style="shape=partialRectangle;overflow=hidden;connectable=0;fillColor=none;top=0;left=0;bottom=0;right=0;fontStyle=1;" parent="tYoEQaHqkxEebnTTU7bw-142" vertex="1">
          <mxGeometry width="30" height="30" as="geometry">
            <mxRectangle width="30" height="30" as="alternateBounds" />
          </mxGeometry>
        </mxCell>
        <mxCell id="tYoEQaHqkxEebnTTU7bw-144" value="skill_id SERIAL" style="shape=partialRectangle;overflow=hidden;connectable=0;fillColor=none;top=0;left=0;bottom=0;right=0;align=left;spacingLeft=6;fontStyle=1;" parent="tYoEQaHqkxEebnTTU7bw-142" vertex="1">
          <mxGeometry x="30" width="270" height="30" as="geometry">
            <mxRectangle width="270" height="30" as="alternateBounds" />
          </mxGeometry>
        </mxCell>
        <mxCell id="tYoEQaHqkxEebnTTU7bw-145" value="" style="shape=partialRectangle;collapsible=0;dropTarget=0;pointerEvents=0;fillColor=none;points=[[0,0.5],[1,0.5]];portConstraint=eastwest;top=0;left=0;right=0;bottom=0;" parent="tYoEQaHqkxEebnTTU7bw-141" vertex="1">
          <mxGeometry y="60" width="300" height="20" as="geometry" />
        </mxCell>
        <mxCell id="tYoEQaHqkxEebnTTU7bw-146" value="" style="shape=partialRectangle;overflow=hidden;connectable=0;fillColor=none;top=0;left=0;bottom=0;right=0;" parent="tYoEQaHqkxEebnTTU7bw-145" vertex="1">
          <mxGeometry width="30" height="20" as="geometry">
            <mxRectangle width="30" height="20" as="alternateBounds" />
          </mxGeometry>
        </mxCell>
        <mxCell id="tYoEQaHqkxEebnTTU7bw-147" value="skill_name VARCHAR(50) UNIQUE NOT NULL" style="shape=partialRectangle;overflow=hidden;connectable=0;fillColor=none;top=0;left=0;bottom=0;right=0;align=left;spacingLeft=6;" parent="tYoEQaHqkxEebnTTU7bw-145" vertex="1">
          <mxGeometry x="30" width="270" height="20" as="geometry">
            <mxRectangle width="270" height="20" as="alternateBounds" />
          </mxGeometry>
        </mxCell>
        <mxCell id="FgKYQ0UO0EhNAM642KUZ-10" value="" style="shape=partialRectangle;collapsible=0;dropTarget=0;pointerEvents=0;fillColor=none;points=[[0,0.5],[1,0.5]];portConstraint=eastwest;top=0;left=0;right=0;bottom=0;" vertex="1" parent="tYoEQaHqkxEebnTTU7bw-141">
          <mxGeometry y="80" width="300" height="30" as="geometry" />
        </mxCell>
        <mxCell id="FgKYQ0UO0EhNAM642KUZ-11" value="" style="shape=partialRectangle;overflow=hidden;connectable=0;fillColor=none;top=0;left=0;bottom=0;right=0;" vertex="1" parent="FgKYQ0UO0EhNAM642KUZ-10">
          <mxGeometry width="30" height="30" as="geometry">
            <mxRectangle width="30" height="30" as="alternateBounds" />
          </mxGeometry>
        </mxCell>
        <mxCell id="FgKYQ0UO0EhNAM642KUZ-12" value="" style="shape=partialRectangle;overflow=hidden;connectable=0;fillColor=none;top=0;left=0;bottom=0;right=0;align=left;spacingLeft=6;" vertex="1" parent="FgKYQ0UO0EhNAM642KUZ-10">
          <mxGeometry x="30" width="270" height="30" as="geometry">
            <mxRectangle width="270" height="30" as="alternateBounds" />
          </mxGeometry>
        </mxCell>
        <mxCell id="tYoEQaHqkxEebnTTU7bw-148" value="" style="shape=partialRectangle;collapsible=0;dropTarget=0;pointerEvents=0;fillColor=none;points=[[0,0.5],[1,0.5]];portConstraint=eastwest;top=0;left=0;right=0;bottom=0;" parent="tYoEQaHqkxEebnTTU7bw-141" vertex="1">
          <mxGeometry y="110" width="300" height="30" as="geometry" />
        </mxCell>
        <mxCell id="tYoEQaHqkxEebnTTU7bw-149" value="" style="shape=partialRectangle;overflow=hidden;connectable=0;fillColor=none;top=0;left=0;bottom=0;right=0;" parent="tYoEQaHqkxEebnTTU7bw-148" vertex="1">
          <mxGeometry width="30" height="30" as="geometry">
            <mxRectangle width="30" height="30" as="alternateBounds" />
          </mxGeometry>
        </mxCell>
        <mxCell id="tYoEQaHqkxEebnTTU7bw-150" value="" style="shape=partialRectangle;overflow=hidden;connectable=0;fillColor=none;top=0;left=0;bottom=0;right=0;align=left;spacingLeft=6;" parent="tYoEQaHqkxEebnTTU7bw-148" vertex="1">
          <mxGeometry x="30" width="270" height="30" as="geometry">
            <mxRectangle width="270" height="30" as="alternateBounds" />
          </mxGeometry>
        </mxCell>
        <mxCell id="tYoEQaHqkxEebnTTU7bw-155" value="" style="group" parent="1" vertex="1" connectable="0">
          <mxGeometry x="-880" y="330" width="480" height="150" as="geometry" />
        </mxCell>
        <mxCell id="tYoEQaHqkxEebnTTU7bw-53" value="Offer" style="shape=table;startSize=30;container=1;collapsible=1;childLayout=tableLayout;fixedRows=1;rowLines=0;fontStyle=1;align=center;resizeLast=1;" parent="tYoEQaHqkxEebnTTU7bw-155" vertex="1">
          <mxGeometry width="480" height="150" as="geometry" />
        </mxCell>
        <mxCell id="tYoEQaHqkxEebnTTU7bw-54" value="" style="shape=partialRectangle;collapsible=0;dropTarget=0;pointerEvents=0;fillColor=none;points=[[0,0.5],[1,0.5]];portConstraint=eastwest;top=0;left=0;right=0;bottom=1;" parent="tYoEQaHqkxEebnTTU7bw-53" vertex="1">
          <mxGeometry y="30" width="480" height="30" as="geometry" />
        </mxCell>
        <mxCell id="tYoEQaHqkxEebnTTU7bw-55" value="PK" style="shape=partialRectangle;overflow=hidden;connectable=0;fillColor=none;top=0;left=0;bottom=0;right=0;fontStyle=1;" parent="tYoEQaHqkxEebnTTU7bw-54" vertex="1">
          <mxGeometry width="30" height="30" as="geometry">
            <mxRectangle width="30" height="30" as="alternateBounds" />
          </mxGeometry>
        </mxCell>
        <mxCell id="tYoEQaHqkxEebnTTU7bw-56" value="offer_id SERIAL" style="shape=partialRectangle;overflow=hidden;connectable=0;fillColor=none;top=0;left=0;bottom=0;right=0;align=left;spacingLeft=6;fontStyle=1;" parent="tYoEQaHqkxEebnTTU7bw-54" vertex="1">
          <mxGeometry x="30" width="450" height="30" as="geometry">
            <mxRectangle width="450" height="30" as="alternateBounds" />
          </mxGeometry>
        </mxCell>
        <mxCell id="tYoEQaHqkxEebnTTU7bw-57" value="" style="shape=partialRectangle;collapsible=0;dropTarget=0;pointerEvents=0;fillColor=none;points=[[0,0.5],[1,0.5]];portConstraint=eastwest;top=0;left=0;right=0;bottom=0;" parent="tYoEQaHqkxEebnTTU7bw-53" vertex="1">
          <mxGeometry y="60" width="480" height="30" as="geometry" />
        </mxCell>
        <mxCell id="tYoEQaHqkxEebnTTU7bw-58" value="FK1" style="shape=partialRectangle;overflow=hidden;connectable=0;fillColor=none;top=0;left=0;bottom=0;right=0;" parent="tYoEQaHqkxEebnTTU7bw-57" vertex="1">
          <mxGeometry width="30" height="30" as="geometry">
            <mxRectangle width="30" height="30" as="alternateBounds" />
          </mxGeometry>
        </mxCell>
        <mxCell id="tYoEQaHqkxEebnTTU7bw-59" value="application_id int NOT NULL" style="shape=partialRectangle;overflow=hidden;connectable=0;fillColor=none;top=0;left=0;bottom=0;right=0;align=left;spacingLeft=6;" parent="tYoEQaHqkxEebnTTU7bw-57" vertex="1">
          <mxGeometry x="30" width="450" height="30" as="geometry">
            <mxRectangle width="450" height="30" as="alternateBounds" />
          </mxGeometry>
        </mxCell>
        <mxCell id="tYoEQaHqkxEebnTTU7bw-60" value="" style="shape=partialRectangle;collapsible=0;dropTarget=0;pointerEvents=0;fillColor=none;points=[[0,0.5],[1,0.5]];portConstraint=eastwest;top=0;left=0;right=0;bottom=0;" parent="tYoEQaHqkxEebnTTU7bw-53" vertex="1">
          <mxGeometry y="90" width="480" height="30" as="geometry" />
        </mxCell>
        <mxCell id="tYoEQaHqkxEebnTTU7bw-61" value="" style="shape=partialRectangle;overflow=hidden;connectable=0;fillColor=none;top=0;left=0;bottom=0;right=0;" parent="tYoEQaHqkxEebnTTU7bw-60" vertex="1">
          <mxGeometry width="30" height="30" as="geometry">
            <mxRectangle width="30" height="30" as="alternateBounds" />
          </mxGeometry>
        </mxCell>
        <mxCell id="tYoEQaHqkxEebnTTU7bw-62" value="offer_date date NOT NULL" style="shape=partialRectangle;overflow=hidden;connectable=0;fillColor=none;top=0;left=0;bottom=0;right=0;align=left;spacingLeft=6;" parent="tYoEQaHqkxEebnTTU7bw-60" vertex="1">
          <mxGeometry x="30" width="450" height="30" as="geometry">
            <mxRectangle width="450" height="30" as="alternateBounds" />
          </mxGeometry>
        </mxCell>
        <mxCell id="tYoEQaHqkxEebnTTU7bw-154" value="offer_status VARCHAR(20) CHECK (status IN (&#39;Proposed&#39;, &#39;Accepted&#39;, &#39;Rejected&#39;)" style="shape=partialRectangle;overflow=hidden;connectable=0;fillColor=none;top=0;left=0;bottom=0;right=0;align=left;spacingLeft=6;" parent="tYoEQaHqkxEebnTTU7bw-155" vertex="1">
          <mxGeometry x="30" y="120" width="450" height="20" as="geometry">
            <mxRectangle width="220" height="30" as="alternateBounds" />
          </mxGeometry>
        </mxCell>
        <mxCell id="tYoEQaHqkxEebnTTU7bw-162" value="" style="group" parent="1" vertex="1" connectable="0">
          <mxGeometry x="-1130" y="530" width="870" height="210" as="geometry" />
        </mxCell>
        <mxCell id="tYoEQaHqkxEebnTTU7bw-13" value="Interview" style="shape=table;startSize=30;container=1;collapsible=1;childLayout=tableLayout;fixedRows=1;rowLines=0;fontStyle=1;align=center;resizeLast=1;" parent="tYoEQaHqkxEebnTTU7bw-162" vertex="1">
          <mxGeometry width="870" height="209.99999999999997" as="geometry" />
        </mxCell>
        <mxCell id="tYoEQaHqkxEebnTTU7bw-14" value="" style="shape=partialRectangle;collapsible=0;dropTarget=0;pointerEvents=0;fillColor=none;points=[[0,0.5],[1,0.5]];portConstraint=eastwest;top=0;left=0;right=0;bottom=1;" parent="tYoEQaHqkxEebnTTU7bw-13" vertex="1">
          <mxGeometry y="30" width="870" height="30" as="geometry" />
        </mxCell>
        <mxCell id="tYoEQaHqkxEebnTTU7bw-15" value="PK" style="shape=partialRectangle;overflow=hidden;connectable=0;fillColor=none;top=0;left=0;bottom=0;right=0;fontStyle=1;" parent="tYoEQaHqkxEebnTTU7bw-14" vertex="1">
          <mxGeometry width="30" height="30" as="geometry">
            <mxRectangle width="30" height="30" as="alternateBounds" />
          </mxGeometry>
        </mxCell>
        <mxCell id="tYoEQaHqkxEebnTTU7bw-16" value="interview_id SERIAL" style="shape=partialRectangle;overflow=hidden;connectable=0;fillColor=none;top=0;left=0;bottom=0;right=0;align=left;spacingLeft=6;fontStyle=1;" parent="tYoEQaHqkxEebnTTU7bw-14" vertex="1">
          <mxGeometry x="30" width="840" height="30" as="geometry">
            <mxRectangle width="840" height="30" as="alternateBounds" />
          </mxGeometry>
        </mxCell>
        <mxCell id="tYoEQaHqkxEebnTTU7bw-17" value="" style="shape=partialRectangle;collapsible=0;dropTarget=0;pointerEvents=0;fillColor=none;points=[[0,0.5],[1,0.5]];portConstraint=eastwest;top=0;left=0;right=0;bottom=0;" parent="tYoEQaHqkxEebnTTU7bw-13" vertex="1">
          <mxGeometry y="60" width="870" height="30" as="geometry" />
        </mxCell>
        <mxCell id="tYoEQaHqkxEebnTTU7bw-18" value="FK1" style="shape=partialRectangle;overflow=hidden;connectable=0;fillColor=none;top=0;left=0;bottom=0;right=0;" parent="tYoEQaHqkxEebnTTU7bw-17" vertex="1">
          <mxGeometry width="30" height="30" as="geometry">
            <mxRectangle width="30" height="30" as="alternateBounds" />
          </mxGeometry>
        </mxCell>
        <mxCell id="tYoEQaHqkxEebnTTU7bw-19" value="application_id REFERENCES Application(application_id)" style="shape=partialRectangle;overflow=hidden;connectable=0;fillColor=none;top=0;left=0;bottom=0;right=0;align=left;spacingLeft=6;" parent="tYoEQaHqkxEebnTTU7bw-17" vertex="1">
          <mxGeometry x="30" width="840" height="30" as="geometry">
            <mxRectangle width="840" height="30" as="alternateBounds" />
          </mxGeometry>
        </mxCell>
        <mxCell id="tYoEQaHqkxEebnTTU7bw-20" value="" style="shape=partialRectangle;collapsible=0;dropTarget=0;pointerEvents=0;fillColor=none;points=[[0,0.5],[1,0.5]];portConstraint=eastwest;top=0;left=0;right=0;bottom=0;" parent="tYoEQaHqkxEebnTTU7bw-13" vertex="1">
          <mxGeometry y="90" width="870" height="30" as="geometry" />
        </mxCell>
        <mxCell id="tYoEQaHqkxEebnTTU7bw-21" value="" style="shape=partialRectangle;overflow=hidden;connectable=0;fillColor=none;top=0;left=0;bottom=0;right=0;" parent="tYoEQaHqkxEebnTTU7bw-20" vertex="1">
          <mxGeometry width="30" height="30" as="geometry">
            <mxRectangle width="30" height="30" as="alternateBounds" />
          </mxGeometry>
        </mxCell>
        <mxCell id="tYoEQaHqkxEebnTTU7bw-22" value="interview_date date NOT NULL CHECK (INTERVIEW_DATE&gt;= CURRENT_DATE AND INTERVIEW_DATED ,= CURRENT_DATE = INTERVAL &#39;1 year&#39;)" style="shape=partialRectangle;overflow=hidden;connectable=0;fillColor=none;top=0;left=0;bottom=0;right=0;align=left;spacingLeft=6;" parent="tYoEQaHqkxEebnTTU7bw-20" vertex="1">
          <mxGeometry x="30" width="840" height="30" as="geometry">
            <mxRectangle width="840" height="30" as="alternateBounds" />
          </mxGeometry>
        </mxCell>
        <mxCell id="tYoEQaHqkxEebnTTU7bw-153" value="interview_result TEXT" style="shape=partialRectangle;overflow=hidden;connectable=0;fillColor=none;top=0;left=0;bottom=0;right=0;align=left;spacingLeft=6;" parent="tYoEQaHqkxEebnTTU7bw-162" vertex="1">
          <mxGeometry x="29.999846395742626" y="109.56521739130434" width="726.8589743589744" height="31.5" as="geometry">
            <mxRectangle width="230" height="30" as="alternateBounds" />
          </mxGeometry>
        </mxCell>
        <mxCell id="FgKYQ0UO0EhNAM642KUZ-34" value="recruiter_id REFERENCES Recruiter(recruiter_id)" style="shape=partialRectangle;overflow=hidden;connectable=0;fillColor=none;top=0;left=0;bottom=0;right=0;align=left;spacingLeft=6;" vertex="1" parent="tYoEQaHqkxEebnTTU7bw-162">
          <mxGeometry x="82.16852564102574" y="168" width="726.8589743589744" height="31.5" as="geometry">
            <mxRectangle width="230" height="30" as="alternateBounds" />
          </mxGeometry>
        </mxCell>
        <mxCell id="FgKYQ0UO0EhNAM642KUZ-35" value="FK2" style="shape=partialRectangle;overflow=hidden;connectable=0;fillColor=none;top=0;left=0;bottom=0;right=0;" vertex="1" parent="tYoEQaHqkxEebnTTU7bw-162">
          <mxGeometry y="168" width="72.49999999999999" height="31.5" as="geometry">
            <mxRectangle width="30" height="30" as="alternateBounds" />
          </mxGeometry>
        </mxCell>
        <mxCell id="FgKYQ0UO0EhNAM642KUZ-36" value="interview_status VARCHAR(20) CHECK (status IN (&#39;Scheduled&#39;, &#39;Completed&#39;, &#39;Passed&#39;, &#39;Failed&#39;))" style="shape=partialRectangle;overflow=hidden;connectable=0;fillColor=none;top=0;left=0;bottom=0;right=0;align=left;spacingLeft=6;" vertex="1" parent="tYoEQaHqkxEebnTTU7bw-162">
          <mxGeometry x="32.82528301886792" y="141.06272727272727" width="804.3396226415093" height="30.755454545454544" as="geometry">
            <mxRectangle width="230" height="30" as="alternateBounds" />
          </mxGeometry>
        </mxCell>
        <mxCell id="tYoEQaHqkxEebnTTU7bw-165" value="" style="group" parent="1" vertex="1" connectable="0">
          <mxGeometry x="-150" y="-180" width="470" height="130" as="geometry" />
        </mxCell>
        <mxCell id="tYoEQaHqkxEebnTTU7bw-166" value="" style="shape=partialRectangle;overflow=hidden;connectable=0;fillColor=none;top=0;left=0;bottom=0;right=0;align=left;spacingLeft=6;" parent="tYoEQaHqkxEebnTTU7bw-165" vertex="1">
          <mxGeometry x="30" y="60" width="270" height="30" as="geometry">
            <mxRectangle width="250" height="30" as="alternateBounds" />
          </mxGeometry>
        </mxCell>
        <mxCell id="tYoEQaHqkxEebnTTU7bw-167" value="" style="shape=partialRectangle;overflow=hidden;connectable=0;fillColor=none;top=0;left=0;bottom=0;right=0;align=left;spacingLeft=6;" parent="tYoEQaHqkxEebnTTU7bw-165" vertex="1">
          <mxGeometry x="30" y="90" width="270" height="30" as="geometry">
            <mxRectangle width="250" height="30" as="alternateBounds" />
          </mxGeometry>
        </mxCell>
        <mxCell id="tYoEQaHqkxEebnTTU7bw-168" value="FK1" style="shape=partialRectangle;overflow=hidden;connectable=0;fillColor=none;top=0;left=0;bottom=0;right=0;direction=south;" parent="tYoEQaHqkxEebnTTU7bw-165" vertex="1">
          <mxGeometry y="60" width="30" height="30" as="geometry">
            <mxRectangle width="30" height="30" as="alternateBounds" />
          </mxGeometry>
        </mxCell>
        <mxCell id="tYoEQaHqkxEebnTTU7bw-169" value="candidate_id REFERENCES Candidate(candidate_id)" style="shape=partialRectangle;overflow=hidden;connectable=0;fillColor=none;top=0;left=0;bottom=0;right=0;align=left;spacingLeft=6;" parent="tYoEQaHqkxEebnTTU7bw-165" vertex="1">
          <mxGeometry x="30" y="60" width="320" height="30" as="geometry">
            <mxRectangle width="250" height="30" as="alternateBounds" />
          </mxGeometry>
        </mxCell>
        <mxCell id="tYoEQaHqkxEebnTTU7bw-170" value="" style="group" parent="tYoEQaHqkxEebnTTU7bw-165" vertex="1" connectable="0">
          <mxGeometry width="470" height="130" as="geometry" />
        </mxCell>
        <mxCell id="tYoEQaHqkxEebnTTU7bw-171" value="Candidate_Skill" style="shape=table;startSize=30;container=1;collapsible=1;childLayout=tableLayout;fixedRows=1;rowLines=0;fontStyle=1;align=center;resizeLast=1;" parent="tYoEQaHqkxEebnTTU7bw-170" vertex="1">
          <mxGeometry width="470" height="130" as="geometry" />
        </mxCell>
        <mxCell id="tYoEQaHqkxEebnTTU7bw-172" value="" style="shape=partialRectangle;collapsible=0;dropTarget=0;pointerEvents=0;fillColor=none;points=[[0,0.5],[1,0.5]];portConstraint=eastwest;top=0;left=0;right=0;bottom=1;" parent="tYoEQaHqkxEebnTTU7bw-171" vertex="1">
          <mxGeometry y="30" width="470" height="30" as="geometry" />
        </mxCell>
        <mxCell id="tYoEQaHqkxEebnTTU7bw-173" value="PK" style="shape=partialRectangle;overflow=hidden;connectable=0;fillColor=none;top=0;left=0;bottom=0;right=0;fontStyle=1;" parent="tYoEQaHqkxEebnTTU7bw-172" vertex="1">
          <mxGeometry width="30" height="30" as="geometry">
            <mxRectangle width="30" height="30" as="alternateBounds" />
          </mxGeometry>
        </mxCell>
        <mxCell id="tYoEQaHqkxEebnTTU7bw-174" value="candidate_id, skill_id (candidate_id INT NOT NULL, skill_id INT NOT NULL)" style="shape=partialRectangle;overflow=hidden;connectable=0;fillColor=none;top=0;left=0;bottom=0;right=0;align=left;spacingLeft=6;fontStyle=1;" parent="tYoEQaHqkxEebnTTU7bw-172" vertex="1">
          <mxGeometry x="30" width="440" height="30" as="geometry">
            <mxRectangle width="440" height="30" as="alternateBounds" />
          </mxGeometry>
        </mxCell>
        <mxCell id="tYoEQaHqkxEebnTTU7bw-175" value="" style="shape=partialRectangle;collapsible=0;dropTarget=0;pointerEvents=0;fillColor=none;points=[[0,0.5],[1,0.5]];portConstraint=eastwest;top=0;left=0;right=0;bottom=0;" parent="tYoEQaHqkxEebnTTU7bw-171" vertex="1">
          <mxGeometry y="60" width="470" height="30" as="geometry" />
        </mxCell>
        <mxCell id="tYoEQaHqkxEebnTTU7bw-176" value="" style="shape=partialRectangle;overflow=hidden;connectable=0;fillColor=none;top=0;left=0;bottom=0;right=0;" parent="tYoEQaHqkxEebnTTU7bw-175" vertex="1">
          <mxGeometry width="30" height="30" as="geometry">
            <mxRectangle width="30" height="30" as="alternateBounds" />
          </mxGeometry>
        </mxCell>
        <mxCell id="tYoEQaHqkxEebnTTU7bw-177" value="" style="shape=partialRectangle;overflow=hidden;connectable=0;fillColor=none;top=0;left=0;bottom=0;right=0;align=left;spacingLeft=6;" parent="tYoEQaHqkxEebnTTU7bw-175" vertex="1">
          <mxGeometry x="30" width="440" height="30" as="geometry">
            <mxRectangle width="440" height="30" as="alternateBounds" />
          </mxGeometry>
        </mxCell>
        <mxCell id="tYoEQaHqkxEebnTTU7bw-178" value="" style="shape=partialRectangle;collapsible=0;dropTarget=0;pointerEvents=0;fillColor=none;points=[[0,0.5],[1,0.5]];portConstraint=eastwest;top=0;left=0;right=0;bottom=0;" parent="tYoEQaHqkxEebnTTU7bw-171" vertex="1">
          <mxGeometry y="90" width="470" height="30" as="geometry" />
        </mxCell>
        <mxCell id="tYoEQaHqkxEebnTTU7bw-179" value="" style="shape=partialRectangle;overflow=hidden;connectable=0;fillColor=none;top=0;left=0;bottom=0;right=0;" parent="tYoEQaHqkxEebnTTU7bw-178" vertex="1">
          <mxGeometry width="30" height="30" as="geometry">
            <mxRectangle width="30" height="30" as="alternateBounds" />
          </mxGeometry>
        </mxCell>
        <mxCell id="tYoEQaHqkxEebnTTU7bw-180" value="" style="shape=partialRectangle;overflow=hidden;connectable=0;fillColor=none;top=0;left=0;bottom=0;right=0;align=left;spacingLeft=6;" parent="tYoEQaHqkxEebnTTU7bw-178" vertex="1">
          <mxGeometry x="30" width="440" height="30" as="geometry">
            <mxRectangle width="440" height="30" as="alternateBounds" />
          </mxGeometry>
        </mxCell>
        <mxCell id="tYoEQaHqkxEebnTTU7bw-181" value="skill_id REFERENCES Skill(skill_id)" style="shape=partialRectangle;overflow=hidden;connectable=0;fillColor=none;top=0;left=0;bottom=0;right=0;align=left;spacingLeft=6;" parent="tYoEQaHqkxEebnTTU7bw-170" vertex="1">
          <mxGeometry x="30" y="90" width="270" height="30" as="geometry">
            <mxRectangle width="250" height="30" as="alternateBounds" />
          </mxGeometry>
        </mxCell>
        <mxCell id="tYoEQaHqkxEebnTTU7bw-182" value="FK2" style="shape=partialRectangle;overflow=hidden;connectable=0;fillColor=none;top=0;left=0;bottom=0;right=0;direction=south;" parent="tYoEQaHqkxEebnTTU7bw-170" vertex="1">
          <mxGeometry y="90" width="30" height="30" as="geometry">
            <mxRectangle width="30" height="30" as="alternateBounds" />
          </mxGeometry>
        </mxCell>
        <mxCell id="tYoEQaHqkxEebnTTU7bw-183" value="" style="group" parent="1" vertex="1" connectable="0">
          <mxGeometry x="-640" width="285" height="200" as="geometry" />
        </mxCell>
        <mxCell id="tYoEQaHqkxEebnTTU7bw-184" value="email VARCHAR(100) UNIQUIE NOT NULL" style="shape=partialRectangle;overflow=hidden;connectable=0;fillColor=none;top=0;left=0;bottom=0;right=0;align=left;spacingLeft=6;" parent="tYoEQaHqkxEebnTTU7bw-183" vertex="1">
          <mxGeometry x="30" y="110" width="255" height="30" as="geometry">
            <mxRectangle width="220" height="30" as="alternateBounds" />
          </mxGeometry>
        </mxCell>
        <mxCell id="tYoEQaHqkxEebnTTU7bw-185" value="" style="group" parent="tYoEQaHqkxEebnTTU7bw-183" vertex="1" connectable="0">
          <mxGeometry width="280" height="200" as="geometry" />
        </mxCell>
        <mxCell id="tYoEQaHqkxEebnTTU7bw-186" value="Candidate" style="shape=table;startSize=20;container=1;collapsible=1;childLayout=tableLayout;fixedRows=1;rowLines=0;fontStyle=1;align=center;resizeLast=1;" parent="tYoEQaHqkxEebnTTU7bw-185" vertex="1">
          <mxGeometry width="280" height="200" as="geometry" />
        </mxCell>
        <mxCell id="tYoEQaHqkxEebnTTU7bw-187" value="" style="shape=partialRectangle;collapsible=0;dropTarget=0;pointerEvents=0;fillColor=none;points=[[0,0.5],[1,0.5]];portConstraint=eastwest;top=0;left=0;right=0;bottom=1;" parent="tYoEQaHqkxEebnTTU7bw-186" vertex="1">
          <mxGeometry y="20" width="280" height="30" as="geometry" />
        </mxCell>
        <mxCell id="tYoEQaHqkxEebnTTU7bw-188" value="PK" style="shape=partialRectangle;overflow=hidden;connectable=0;fillColor=none;top=0;left=0;bottom=0;right=0;fontStyle=1;" parent="tYoEQaHqkxEebnTTU7bw-187" vertex="1">
          <mxGeometry width="30" height="30" as="geometry">
            <mxRectangle width="30" height="30" as="alternateBounds" />
          </mxGeometry>
        </mxCell>
        <mxCell id="tYoEQaHqkxEebnTTU7bw-189" value="candidate_id SERIAL" style="shape=partialRectangle;overflow=hidden;connectable=0;fillColor=none;top=0;left=0;bottom=0;right=0;align=left;spacingLeft=6;fontStyle=1;" parent="tYoEQaHqkxEebnTTU7bw-187" vertex="1">
          <mxGeometry x="30" width="250" height="30" as="geometry">
            <mxRectangle width="250" height="30" as="alternateBounds" />
          </mxGeometry>
        </mxCell>
        <mxCell id="tYoEQaHqkxEebnTTU7bw-190" value="" style="shape=partialRectangle;collapsible=0;dropTarget=0;pointerEvents=0;fillColor=none;points=[[0,0.5],[1,0.5]];portConstraint=eastwest;top=0;left=0;right=0;bottom=0;" parent="tYoEQaHqkxEebnTTU7bw-186" vertex="1">
          <mxGeometry y="50" width="280" height="30" as="geometry" />
        </mxCell>
        <mxCell id="tYoEQaHqkxEebnTTU7bw-191" value="" style="shape=partialRectangle;overflow=hidden;connectable=0;fillColor=none;top=0;left=0;bottom=0;right=0;" parent="tYoEQaHqkxEebnTTU7bw-190" vertex="1">
          <mxGeometry width="30" height="30" as="geometry">
            <mxRectangle width="30" height="30" as="alternateBounds" />
          </mxGeometry>
        </mxCell>
        <mxCell id="tYoEQaHqkxEebnTTU7bw-192" value="first_name VARCHAR(50) NOT NULL" style="shape=partialRectangle;overflow=hidden;connectable=0;fillColor=none;top=0;left=0;bottom=0;right=0;align=left;spacingLeft=6;" parent="tYoEQaHqkxEebnTTU7bw-190" vertex="1">
          <mxGeometry x="30" width="250" height="30" as="geometry">
            <mxRectangle width="250" height="30" as="alternateBounds" />
          </mxGeometry>
        </mxCell>
        <mxCell id="tYoEQaHqkxEebnTTU7bw-193" value="last_name VARCHAR(50) NOT NULL" style="shape=partialRectangle;overflow=hidden;connectable=0;fillColor=none;top=0;left=0;bottom=0;right=0;align=left;spacingLeft=6;" parent="tYoEQaHqkxEebnTTU7bw-185" vertex="1">
          <mxGeometry x="30" y="80" width="200" height="30" as="geometry">
            <mxRectangle width="220" height="30" as="alternateBounds" />
          </mxGeometry>
        </mxCell>
        <mxCell id="tYoEQaHqkxEebnTTU7bw-194" value="phone VARCHAR(20)" style="shape=partialRectangle;overflow=hidden;connectable=0;fillColor=none;top=0;left=0;bottom=0;right=0;align=left;spacingLeft=6;" parent="tYoEQaHqkxEebnTTU7bw-185" vertex="1">
          <mxGeometry x="30" y="140" width="200" height="30" as="geometry">
            <mxRectangle width="220" height="30" as="alternateBounds" />
          </mxGeometry>
        </mxCell>
        <mxCell id="tYoEQaHqkxEebnTTU7bw-195" value="resume TEXT" style="shape=partialRectangle;overflow=hidden;connectable=0;fillColor=none;top=0;left=0;bottom=0;right=0;align=left;spacingLeft=6;" parent="tYoEQaHqkxEebnTTU7bw-185" vertex="1">
          <mxGeometry x="30" y="170" width="200" height="30" as="geometry">
            <mxRectangle width="220" height="30" as="alternateBounds" />
          </mxGeometry>
        </mxCell>
        <mxCell id="FgKYQ0UO0EhNAM642KUZ-9" value="" style="edgeStyle=entityRelationEdgeStyle;fontSize=12;html=1;endArrow=ERmany;rounded=0;entryX=0;entryY=0.5;entryDx=0;entryDy=0;" edge="1" parent="1" target="tYoEQaHqkxEebnTTU7bw-175">
          <mxGeometry width="100" height="100" relative="1" as="geometry">
            <mxPoint x="-360" y="30" as="sourcePoint" />
            <mxPoint x="-260" y="-70" as="targetPoint" />
          </mxGeometry>
        </mxCell>
        <mxCell id="FgKYQ0UO0EhNAM642KUZ-14" value="" style="edgeStyle=entityRelationEdgeStyle;fontSize=12;html=1;endArrow=ERmany;rounded=0;entryX=1.014;entryY=0.933;entryDx=0;entryDy=0;entryPerimeter=0;" edge="1" parent="1" target="tYoEQaHqkxEebnTTU7bw-178">
          <mxGeometry width="100" height="100" relative="1" as="geometry">
            <mxPoint x="820" y="-280" as="sourcePoint" />
            <mxPoint x="300" y="-85" as="targetPoint" />
            <Array as="points">
              <mxPoint x="810" y="-290" />
              <mxPoint x="130" y="-290" />
              <mxPoint x="130" y="-280" />
              <mxPoint x="40" y="-290" />
              <mxPoint x="46.57999999999993" y="-520" />
              <mxPoint x="-394.23" y="-115" />
              <mxPoint x="-514.23" y="-93" />
            </Array>
          </mxGeometry>
        </mxCell>
        <mxCell id="FgKYQ0UO0EhNAM642KUZ-15" value="" style="edgeStyle=entityRelationEdgeStyle;fontSize=12;html=1;endArrow=ERmany;rounded=0;" edge="1" parent="1">
          <mxGeometry width="100" height="100" relative="1" as="geometry">
            <mxPoint x="780" y="40" as="sourcePoint" />
            <mxPoint x="890" y="-40" as="targetPoint" />
            <Array as="points">
              <mxPoint x="1370" y="-10" />
              <mxPoint x="850" y="-140" />
            </Array>
          </mxGeometry>
        </mxCell>
        <mxCell id="FgKYQ0UO0EhNAM642KUZ-16" value="" style="edgeStyle=entityRelationEdgeStyle;fontSize=12;html=1;endArrow=ERmany;rounded=0;entryX=0;entryY=0.5;entryDx=0;entryDy=0;" edge="1" parent="1" target="tYoEQaHqkxEebnTTU7bw-101">
          <mxGeometry width="100" height="100" relative="1" as="geometry">
            <mxPoint x="-360" y="40" as="sourcePoint" />
            <mxPoint x="-230" y="10" as="targetPoint" />
            <Array as="points">
              <mxPoint x="-240" y="40" />
              <mxPoint x="-230" y="10" />
            </Array>
          </mxGeometry>
        </mxCell>
        <mxCell id="FgKYQ0UO0EhNAM642KUZ-21" value="" style="edgeStyle=entityRelationEdgeStyle;fontSize=12;html=1;endArrow=ERmany;rounded=0;" edge="1" parent="1">
          <mxGeometry width="100" height="100" relative="1" as="geometry">
            <mxPoint x="740" y="300" as="sourcePoint" />
            <mxPoint x="440" y="190" as="targetPoint" />
            <Array as="points">
              <mxPoint x="1280" y="300" />
            </Array>
          </mxGeometry>
        </mxCell>
        <mxCell id="FgKYQ0UO0EhNAM642KUZ-24" value="" style="edgeStyle=entityRelationEdgeStyle;fontSize=12;html=1;endArrow=ERmany;rounded=0;" edge="1" parent="1">
          <mxGeometry width="100" height="100" relative="1" as="geometry">
            <mxPoint x="740" y="310" as="sourcePoint" />
            <mxPoint x="-50" y="540" as="targetPoint" />
            <Array as="points">
              <mxPoint x="750" y="290" />
              <mxPoint x="544.6" y="580" />
            </Array>
          </mxGeometry>
        </mxCell>
        <mxCell id="FgKYQ0UO0EhNAM642KUZ-25" value="" style="edgeStyle=entityRelationEdgeStyle;fontSize=12;html=1;endArrow=ERzeroToOne;endFill=1;rounded=0;entryX=1;entryY=0.5;entryDx=0;entryDy=0;exitX=0.001;exitY=-0.133;exitDx=0;exitDy=0;exitPerimeter=0;" edge="1" parent="1" source="tYoEQaHqkxEebnTTU7bw-107" target="tYoEQaHqkxEebnTTU7bw-57">
          <mxGeometry width="100" height="100" relative="1" as="geometry">
            <mxPoint x="-320" y="80" as="sourcePoint" />
            <mxPoint x="-355" y="386.32" as="targetPoint" />
            <Array as="points">
              <mxPoint x="-235" y="471.32" />
              <mxPoint x="-355" y="421.32" />
            </Array>
          </mxGeometry>
        </mxCell>
        <mxCell id="FgKYQ0UO0EhNAM642KUZ-26" value="" style="edgeStyle=entityRelationEdgeStyle;fontSize=12;html=1;endArrow=ERzeroToOne;endFill=1;rounded=0;exitX=1;exitY=0.5;exitDx=0;exitDy=0;" edge="1" parent="1" source="tYoEQaHqkxEebnTTU7bw-54">
          <mxGeometry width="100" height="100" relative="1" as="geometry">
            <mxPoint x="-940" y="365" as="sourcePoint" />
            <mxPoint x="-1430" y="130" as="targetPoint" />
            <Array as="points">
              <mxPoint x="-1040" y="180" />
              <mxPoint x="-1220" y="150" />
              <mxPoint x="-1170" y="160" />
              <mxPoint x="-1220" y="170" />
              <mxPoint x="-1160" y="220" />
            </Array>
          </mxGeometry>
        </mxCell>
        <mxCell id="FgKYQ0UO0EhNAM642KUZ-27" value="FK2" style="shape=partialRectangle;overflow=hidden;connectable=0;fillColor=none;top=0;left=0;bottom=0;right=0;" vertex="1" parent="1">
          <mxGeometry x="-1420" y="140" width="30" height="30" as="geometry">
            <mxRectangle width="30" height="30" as="alternateBounds" />
          </mxGeometry>
        </mxCell>
        <mxCell id="FgKYQ0UO0EhNAM642KUZ-28" value="candidate_id REFERENCES Candidate(jcandidate_id)" style="shape=partialRectangle;overflow=hidden;connectable=0;fillColor=none;top=0;left=0;bottom=0;right=0;align=left;spacingLeft=6;" vertex="1" parent="1">
          <mxGeometry x="-1390" y="140" width="680" height="30" as="geometry">
            <mxRectangle width="680" height="30" as="alternateBounds" />
          </mxGeometry>
        </mxCell>
        <mxCell id="FgKYQ0UO0EhNAM642KUZ-29" value="" style="edgeStyle=entityRelationEdgeStyle;fontSize=12;html=1;endArrow=ERzeroToOne;endFill=1;rounded=0;" edge="1" parent="1">
          <mxGeometry width="100" height="100" relative="1" as="geometry">
            <mxPoint x="-360" y="50" as="sourcePoint" />
            <mxPoint x="-720" y="160" as="targetPoint" />
            <Array as="points">
              <mxPoint x="-690" />
              <mxPoint x="-750" y="45" />
              <mxPoint x="-1420" y="-195" />
              <mxPoint x="-1600" y="-225" />
              <mxPoint x="-730" y="150" />
              <mxPoint x="-690" y="150" />
              <mxPoint x="-1550" y="-215" />
              <mxPoint x="-1600" y="-205" />
              <mxPoint x="-1540" y="-155" />
            </Array>
          </mxGeometry>
        </mxCell>
        <mxCell id="FgKYQ0UO0EhNAM642KUZ-30" value="start_date DATE CHECK (start_date &lt;= CURRENT_DATE)" style="shape=partialRectangle;overflow=hidden;connectable=0;fillColor=none;top=0;left=0;bottom=0;right=0;align=left;spacingLeft=6;" vertex="1" parent="1">
          <mxGeometry x="-1390" y="170" width="680" height="30" as="geometry">
            <mxRectangle width="680" height="30" as="alternateBounds" />
          </mxGeometry>
        </mxCell>
        <mxCell id="FgKYQ0UO0EhNAM642KUZ-31" value="salary DECIMAL (10,2)" style="shape=partialRectangle;overflow=hidden;connectable=0;fillColor=none;top=0;left=0;bottom=0;right=0;align=left;spacingLeft=6;" vertex="1" parent="1">
          <mxGeometry x="-1390" y="190" width="680" height="30" as="geometry">
            <mxRectangle width="680" height="30" as="alternateBounds" />
          </mxGeometry>
        </mxCell>
        <mxCell id="FgKYQ0UO0EhNAM642KUZ-33" value="" style="edgeStyle=entityRelationEdgeStyle;fontSize=12;html=1;endArrow=ERzeroToOne;endFill=1;rounded=0;entryX=1;entryY=0.5;entryDx=0;entryDy=0;exitX=0.011;exitY=0.122;exitDx=0;exitDy=0;exitPerimeter=0;" edge="1" parent="1" source="tYoEQaHqkxEebnTTU7bw-101" target="tYoEQaHqkxEebnTTU7bw-17">
          <mxGeometry width="100" height="100" relative="1" as="geometry">
            <mxPoint x="-280" y="270" as="sourcePoint" />
            <mxPoint x="-170" y="560" as="targetPoint" />
            <Array as="points">
              <mxPoint x="-280" y="400" />
              <mxPoint x="-190" y="680" />
            </Array>
          </mxGeometry>
        </mxCell>
        <mxCell id="FgKYQ0UO0EhNAM642KUZ-38" value="" style="edgeStyle=entityRelationEdgeStyle;fontSize=12;html=1;endArrow=ERmany;rounded=0;exitX=0;exitY=0.5;exitDx=0;exitDy=0;" edge="1" parent="1" source="tYoEQaHqkxEebnTTU7bw-3">
          <mxGeometry width="100" height="100" relative="1" as="geometry">
            <mxPoint x="340" y="500" as="sourcePoint" />
            <mxPoint x="-260" y="720" as="targetPoint" />
            <Array as="points">
              <mxPoint x="-20" y="510" />
            </Array>
          </mxGeometry>
        </mxCell>
        <mxCell id="FgKYQ0UO0EhNAM642KUZ-39" value="job_title VARCHAR(100)" style="shape=partialRectangle;overflow=hidden;connectable=0;fillColor=none;top=0;left=0;bottom=0;right=0;align=left;spacingLeft=6;" vertex="1" parent="1">
          <mxGeometry x="-1390" y="210" width="680" height="30" as="geometry">
            <mxRectangle width="680" height="30" as="alternateBounds" />
          </mxGeometry>
        </mxCell>
      </root>
    </mxGraphModel>
  </diagram>
</mxfile>
